<?xml version="1.0" standalone="no"?>
<!DOCTYPE svg PUBLIC "-//W3C//DTD SVG 20010904//EN"
 "http://www.w3.org/TR/2001/REC-SVG-20010904/DTD/svg10.dtd">
<svg version="1.0" xmlns="http://www.w3.org/2000/svg"
 width="100pt" height="150pt" viewBox="0 0 1080.000000 1080.000000"
 preserveAspectRatio="xMidYMid meet">

<g transform="translate(0.000000,1080.000000) scale(0.100000,-0.100000)"
fill="#000000" stroke="none">
<path d="M0 5400 l0 -5400 5400 0 5400 0 0 5400 0 5400 -5400 0 -5400 0 0
-5400z m4187 2379 c92 -10 134 -9 230 2 176 20 255 19 289 -7 58 -43 87 -90
92 -149 l4 -55 355 0 c222 0 370 -4 397 -11 96 -24 155 -107 156 -217 0 -61
-1 -63 -47 -108 -76 -76 -66 -74 -488 -74 l-375 0 0 -205 0 -205 363 0 c222 0
377 -4 400 -11 49 -13 105 -63 128 -114 20 -44 27 -175 9 -175 -6 0 -25 -16
-43 -37 -63 -72 -67 -73 -483 -73 l-372 0 -4 -54 c-7 -87 -62 -151 -151 -177
-22 -6 -64 -4 -137 7 -116 18 -386 15 -470 -6 -24 -6 -61 -8 -81 -5 -47 8
-111 50 -133 86 -10 17 -41 40 -79 58 -143 69 -255 216 -314 414 l-14 49 -292
-5 c-320 -5 -388 -13 -545 -69 -171 -60 -302 -140 -431 -263 -236 -224 -364
-505 -378 -826 -26 -586 386 -1111 964 -1228 101 -21 116 -21 2662 -21 2481 0
2563 1 2658 19 460 90 815 427 940 891 34 129 43 363 19 494 -95 502 -474 887
-965 980 -46 9 -89 16 -97 16 -10 0 -14 -44 -16 -214 l-3 -214 -31 -43 c-27
-37 -42 -47 -110 -69 l-79 -27 -52 19 c-69 24 -164 23 -247 -2 -64 -20 -86
-21 -643 -18 -570 3 -579 3 -618 25 -22 11 -52 34 -67 50 -58 61 -58 56 -58
761 0 454 3 656 11 683 16 52 64 108 113 130 38 17 79 19 637 19 514 0 603 -2
640 -16 60 -21 163 -20 232 2 58 18 58 18 127 -6 38 -13 82 -35 96 -49 49 -45
54 -72 54 -310 l0 -221 23 -4 c12 -3 49 -8 82 -11 258 -27 585 -161 810 -334
318 -243 542 -596 636 -1001 28 -120 38 -429 19 -577 -69 -548 -440 -1058
-944 -1299 -196 -93 -367 -142 -578 -164 -128 -13 -5004 -13 -5156 0 -754 67
-1362 610 -1524 1360 -30 142 -33 494 -5 635 126 632 577 1138 1178 1319 205
62 261 68 616 73 l322 5 22 67 c61 186 182 337 316 393 29 12 55 29 58 38 7
22 52 65 90 85 33 18 77 17 282 -6z m-183 -1961 c-4 -13 -41 -113 -84 -223
-42 -110 -139 -363 -216 -562 l-139 -363 -247 0 -248 0 19 48 c37 95 254 661
308 804 l56 146 -67 80 c-36 44 -66 83 -66 86 0 3 156 6 346 6 l345 0 -7 -22z
m2110 -119 c-30 -78 -54 -143 -54 -145 0 -2 -230 -5 -511 -6 l-511 -3 -24 -64
c-13 -35 -24 -67 -24 -72 0 -5 222 -9 505 -9 l505 0 -19 -47 c-10 -27 -35 -92
-56 -145 l-37 -98 -508 0 -508 0 -26 -65 c-14 -36 -26 -70 -26 -75 0 -6 183
-11 504 -12 l504 -3 -53 -140 -53 -140 -757 -3 c-719 -2 -757 -1 -750 15 3 10
65 171 137 358 71 187 154 403 184 479 30 79 50 144 46 150 -5 6 -37 46 -71
89 l-62 77 860 0 859 0 -54 -141z m2206 137 c0 -12 -140 -370 -147 -377 -4 -4
-80 -50 -168 -103 l-159 -96 122 0 c89 0 122 -3 122 -12 0 -7 -48 -139 -107
-295 l-108 -283 -752 0 c-445 0 -753 4 -753 9 0 5 83 226 185 491 102 265 185
486 185 492 0 6 -25 43 -57 82 -31 39 -61 77 -66 84 -8 9 163 12 847 12 471 0
856 -2 856 -4z m-3285 -2231 c-32 -26 -72 -35 -59 -12 17 30 28 37 58 37 l31
-1 -30 -24z m-3165 -165 l0 -120 -24 0 c-23 0 -25 4 -28 63 -1 34 -2 88 0 120
3 53 5 57 27 57 l25 0 0 -120z m153 73 c15 -27 37 -66 50 -87 l24 -39 -1 84
c-1 80 0 84 22 87 22 3 22 2 22 -117 l0 -121 -32 0 c-31 0 -36 6 -80 83 l-47
82 -1 -82 c0 -82 0 -83 -25 -83 l-25 0 0 120 0 120 33 0 c30 0 37 -6 60 -47z
m306 38 c8 -5 11 -16 7 -26 -5 -13 -14 -15 -45 -10 -51 8 -64 -11 -28 -39 15
-12 39 -30 53 -42 31 -24 35 -65 8 -95 -15 -16 -28 -19 -73 -17 -52 3 -56 5
-59 30 -3 26 -2 26 32 16 71 -22 91 19 26 52 -61 31 -78 82 -40 120 21 21 92
28 119 11z m211 -16 c0 -21 -5 -25 -30 -25 l-30 0 0 -95 0 -95 -30 0 c-16 0
-29 3 -29 8 1 4 1 48 0 98 l-1 90 -27 0 c-22 -1 -29 4 -31 22 -3 21 -1 22 87
22 90 0 91 0 91 -25z m195 -82 c21 -60 40 -114 43 -120 3 -9 -6 -13 -25 -13
-22 0 -31 6 -39 28 -8 21 -18 28 -41 30 -33 2 -63 -19 -63 -44 0 -9 -11 -14
-31 -14 -21 0 -30 4 -26 13 2 6 21 60 42 120 37 106 38 107 70 107 32 0 33 -1
70 -107z m125 7 l0 -100 50 0 c43 0 50 -3 50 -20 0 -18 -7 -20 -75 -20 l-75 0
0 120 0 120 25 0 25 0 0 -100z m270 68 c19 -52 70 -201 70 -205 0 -2 -13 -3
-28 -3 -21 0 -30 7 -38 28 -9 23 -17 28 -48 30 -34 2 -39 0 -49 -28 -9 -24
-17 -30 -40 -30 -19 0 -28 4 -24 13 2 6 21 60 42 120 38 107 38 107 70 107 28
0 35 -5 45 -32z m258 24 c7 -5 10 -16 6 -26 -5 -14 -14 -16 -39 -12 -18 4 -39
4 -48 0 -22 -8 -40 -68 -32 -104 8 -37 34 -52 83 -48 31 3 37 0 37 -17 0 -39
-108 -37 -148 3 -21 22 -33 95 -23 137 12 46 53 75 105 75 25 0 52 -4 59 -8z
m102 1 c1 -5 2 -59 3 -121 l2 -112 -27 0 -28 0 0 120 0 120 25 0 c14 0 25 -3
25 -7z m247 -17 c26 -22 28 -30 28 -96 0 -66 -2 -74 -28 -96 -22 -19 -39 -24
-82 -24 -47 0 -56 4 -79 30 -48 58 -43 147 11 190 38 30 113 28 150 -4z m175
-24 c15 -26 38 -65 52 -87 l24 -39 -5 87 -6 87 27 0 26 0 0 -120 0 -120 -32 0
c-31 0 -36 6 -81 85 -27 47 -49 85 -50 85 -1 0 -1 -38 1 -85 l3 -85 -25 0 -26
0 0 120 0 120 33 0 c28 0 36 -6 59 -48z m318 28 c0 -17 -7 -20 -40 -20 -22 0
-41 -4 -41 -10 -5 -31 -1 -35 36 -40 32 -4 40 -9 40 -25 0 -16 -8 -21 -37 -23
-26 -2 -39 -9 -43 -22 -9 -30 2 -40 46 -40 32 0 39 -3 39 -20 0 -18 -7 -20
-70 -20 l-70 0 0 120 0 120 70 0 c63 0 70 -2 70 -20z m178 12 c7 -5 10 -16 6
-25 -5 -13 -16 -16 -47 -15 -55 4 -63 -23 -15 -48 51 -26 68 -45 68 -77 0 -47
-25 -67 -84 -67 -28 0 -57 4 -64 9 -18 11 -10 47 9 42 72 -22 118 14 57 45
-51 26 -68 45 -68 77 0 46 25 67 79 67 25 0 52 -4 59 -8z m282 -12 c0 -17 -7
-20 -40 -20 -36 0 -40 -3 -40 -24 0 -21 5 -25 38 -28 29 -2 38 -8 40 -25 3
-19 -2 -22 -40 -25 -38 -3 -43 -6 -43 -28 0 -22 5 -25 43 -28 34 -3 42 -7 42
-23 0 -17 -7 -19 -70 -19 l-70 0 0 120 0 120 70 0 c63 0 70 -2 70 -20z m100
-80 l0 -100 50 0 c43 0 50 -3 50 -20 0 -18 -7 -20 -75 -20 l-75 0 0 120 0 120
25 0 25 0 0 -100z m280 80 c0 -20 -21 -26 -72 -22 -13 1 -18 -6 -18 -23 0 -22
4 -25 40 -25 36 0 40 -2 40 -25 0 -22 -4 -25 -40 -25 -38 0 -40 -2 -40 -30 0
-29 2 -30 45 -30 38 0 45 -3 45 -20 0 -18 -7 -20 -70 -20 l-70 0 0 120 0 120
70 0 c63 0 70 -2 70 -20z m206 12 c8 -4 8 -15 3 -30 -7 -19 -12 -21 -28 -12
-29 15 -49 12 -71 -10 -25 -25 -27 -86 -4 -119 15 -20 22 -23 61 -17 41 5 44
4 41 -16 -6 -43 -116 -41 -149 3 -41 54 -32 150 18 189 26 20 105 28 129 12z
m212 -14 c-2 -13 -9 -22 -17 -20 -7 1 -22 0 -32 -3 -17 -6 -19 -17 -19 -101 0
-94 0 -94 -25 -94 l-25 0 0 101 c0 98 -1 100 -22 99 -38 -3 -44 -1 -45 20 -2
19 4 20 93 20 93 0 95 -1 92 -22z m177 -3 c31 -30 32 -62 4 -91 -24 -25 -26
-17 26 -96 l17 -28 -28 0 c-24 0 -34 8 -57 46 -33 55 -52 53 -52 -4 0 -39 -2
-42 -27 -42 l-28 0 0 120 0 120 60 0 c51 0 65 -4 85 -25z m135 -95 l0 -120
-30 0 -30 0 0 120 0 120 30 0 30 0 0 -120z m216 112 c8 -4 8 -15 3 -30 -7 -19
-12 -21 -28 -12 -29 15 -49 12 -71 -10 -25 -25 -27 -86 -4 -119 15 -20 22 -23
61 -17 42 5 44 4 41 -17 -3 -19 -10 -22 -59 -25 -48 -3 -59 0 -81 23 -50 50
-45 152 9 195 26 20 105 28 129 12z m212 -112 l41 -120 -28 0 c-23 0 -31 6
-39 28 -8 24 -16 28 -51 30 -39 3 -42 1 -47 -28 -6 -25 -11 -30 -35 -30 -16 0
-29 2 -29 5 0 5 50 153 75 223 2 6 19 12 38 12 l33 0 42 -120z m200 112 c7 -5
10 -16 6 -25 -5 -13 -16 -16 -47 -15 -55 4 -63 -23 -15 -48 53 -26 68 -44 68
-80 0 -43 -30 -64 -90 -64 -54 0 -73 11 -68 36 2 13 10 18 23 15 79 -17 115
13 53 45 -51 26 -68 45 -68 77 0 46 25 67 79 67 25 0 52 -4 59 -8z m290 -8
c25 -18 30 -65 8 -83 -13 -11 -12 -15 5 -32 26 -26 24 -55 -6 -84 -21 -22 -33
-25 -90 -25 l-65 0 0 120 0 120 63 0 c40 0 70 -5 85 -16z m196 8 c3 -5 23 -59
45 -120 l39 -112 -29 0 c-22 0 -30 6 -35 25 -3 14 -11 26 -18 26 -69 9 -75 7
-85 -22 -7 -22 -16 -29 -35 -29 -15 0 -26 4 -26 8 0 9 50 156 69 205 8 21 17
27 40 27 16 0 32 -4 35 -8z m250 -13 c32 -25 35 -70 6 -99 l-21 -21 31 -44
c16 -24 30 -46 30 -49 0 -3 -13 -6 -29 -6 -23 0 -32 8 -52 45 -13 25 -30 45
-36 45 -9 0 -13 -16 -13 -45 0 -43 -1 -45 -30 -45 l-30 0 0 120 0 120 59 0
c44 0 65 -5 85 -21z m232 -4 c21 -28 18 -81 -6 -98 -19 -13 -18 -15 16 -65
l35 -52 -31 0 c-25 0 -35 7 -58 45 -15 25 -33 45 -39 45 -9 0 -13 -16 -13 -45
0 -41 -2 -45 -25 -45 l-25 0 0 121 0 121 66 -4 c50 -3 70 -9 80 -23z m124 -95
l0 -120 -24 0 c-30 0 -36 17 -31 85 2 28 4 74 4 103 1 49 3 52 26 52 l25 0 0
-120z m235 98 c31 -28 46 -84 34 -135 -12 -55 -49 -83 -109 -83 -36 0 -56 6
-75 23 -50 43 -50 152 0 194 37 32 113 32 150 1z m202 -60 l48 -82 3 82 c3 80
4 82 27 82 l25 0 0 -121 0 -120 -36 3 c-35 3 -40 8 -85 88 l-49 85 0 -87 c0
-87 0 -88 -25 -88 l-25 0 0 120 0 120 35 0 c33 0 37 -4 82 -82z m213 -6 c0
-93 8 -112 45 -112 37 0 45 19 45 112 0 87 0 88 25 88 25 0 25 0 25 -99 0 -96
-1 -100 -26 -120 -40 -32 -113 -29 -145 5 -21 23 -24 36 -27 120 l-4 94 31 0
31 0 0 -88z m340 68 c0 -17 -7 -20 -45 -20 -41 0 -45 -2 -45 -25 0 -22 4 -25
40 -25 36 0 40 -2 40 -25 0 -22 -4 -25 -40 -25 -38 0 -40 -2 -40 -30 0 -29 2
-30 45 -30 38 0 45 -3 45 -20 0 -18 -7 -20 -70 -20 l-70 0 0 120 0 120 70 0
c63 0 70 -2 70 -20z m98 -70 l29 -90 27 90 c25 81 31 90 52 90 13 0 24 -3 24
-7 0 -5 -16 -59 -37 -121 -38 -112 -38 -113 -68 -110 -28 3 -31 9 -67 108 -20
58 -37 111 -37 118 -1 6 10 12 24 12 22 0 27 -9 53 -90z m353 61 c26 -26 29
-36 29 -91 0 -55 -3 -65 -29 -91 -25 -25 -37 -29 -83 -29 -62 1 -82 13 -104
65 -38 92 13 175 108 175 41 0 54 -5 79 -29z"/>
<path d="M3940 7698 c-14 -7 -34 -32 -45 -55 -11 -24 -26 -43 -35 -43 -25 0
-132 -56 -166 -87 -78 -71 -152 -207 -180 -332 l-16 -68 -336 -6 c-185 -3
-371 -11 -412 -17 -534 -81 -984 -412 -1220 -895 -209 -428 -212 -927 -7
-1377 219 -479 719 -843 1247 -908 70 -8 776 -10 2695 -8 l2600 3 105 27 c150
37 220 62 347 123 334 159 591 415 753 750 105 217 149 396 157 636 13 362
-72 656 -277 963 -265 396 -727 664 -1195 695 l-100 6 -5 268 -5 269 -38 35
c-43 39 -51 39 -167 8 -73 -20 -167 -16 -240 10 -36 13 -131 15 -615 15 l-572
0 -34 -23 c-19 -13 -39 -38 -46 -57 -17 -50 -17 -1270 0 -1320 7 -19 27 -44
46 -57 l34 -23 577 0 c484 0 584 2 619 15 73 25 159 29 231 10 106 -28 112
-29 146 -10 59 32 64 55 64 319 l0 236 31 0 c73 0 252 -34 348 -66 238 -79
435 -213 590 -400 276 -333 372 -755 265 -1156 -132 -492 -517 -853 -1019
-955 -86 -17 -213 -18 -2665 -18 -2430 0 -2580 1 -2662 18 -541 110 -954 532
-1043 1065 -27 162 -17 380 24 537 133 500 550 878 1057 959 77 12 175 16 411
16 l310 0 13 -57 c32 -148 113 -294 202 -364 29 -23 75 -47 109 -57 49 -14 59
-21 64 -44 4 -15 20 -39 38 -54 34 -28 15 -28 249 -4 105 11 147 11 250 0 230
-25 212 -25 249 8 33 29 34 33 38 116 l3 86 402 0 c452 0 454 0 489 72 16 32
17 43 7 73 -6 19 -23 44 -37 55 -25 19 -40 20 -444 20 l-419 0 0 300 0 300
404 0 c228 0 415 4 429 9 59 23 87 87 63 145 -28 67 -20 66 -480 66 l-414 0
-4 89 c-3 78 -6 93 -27 115 -33 35 -62 39 -176 21 -110 -16 -275 -19 -375 -6
-157 21 -165 22 -190 9z"/>
<path d="M7169 5483 c-13 -37 -25 -71 -27 -75 -2 -4 53 -8 123 -8 l127 0 119
71 c65 39 119 73 119 75 0 2 -98 4 -218 4 l-218 0 -25 -67z"/>
<path d="M7000 5043 c-14 -37 -26 -71 -28 -75 -2 -5 113 -8 256 -8 l260 0 26
65 c14 36 26 70 26 75 0 6 -94 10 -258 10 l-257 0 -25 -67z"/>
<path d="M2656 3485 c-4 -17 -9 -38 -12 -47 -4 -14 1 -18 20 -18 29 0 30 9 12
60 l-13 35 -7 -30z"/>
<path d="M3072 3473 c-16 -53 -16 -53 13 -53 28 0 29 9 11 59 l-12 34 -12 -40z"/>
<path d="M3620 3500 c-24 -24 -27 -86 -4 -118 17 -25 51 -29 80 -8 27 20 26
112 -1 132 -26 19 -52 17 -75 -6z"/>
<path d="M5579 3514 c0 -5 -2 -19 -5 -31 -5 -26 5 -34 34 -26 15 3 22 13 22
29 0 13 -4 24 -9 24 -5 0 -16 3 -25 6 -9 3 -16 2 -17 -2z"/>
<path d="M6142 3480 c-18 -49 -15 -60 13 -60 23 0 25 3 19 28 -16 64 -20 68
-32 32z"/>
<path d="M6620 3493 c0 -21 4 -24 33 -21 20 2 32 8 32 18 0 8 -14 17 -32 21
-30 6 -33 4 -33 -18z"/>
<path d="M6620 3391 c0 -32 7 -36 48 -25 37 10 26 48 -15 52 -31 3 -33 1 -33
-27z"/>
<path d="M6863 3460 c-10 -40 -10 -40 17 -40 27 0 28 1 18 40 -6 22 -13 40
-17 40 -4 0 -12 -18 -18 -40z"/>
<path d="M7080 3484 c0 -32 2 -35 23 -28 42 13 48 40 11 54 -35 14 -34 14 -34
-26z"/>
<path d="M7300 3485 c0 -39 -1 -39 34 -25 31 11 34 35 7 50 -32 17 -41 12 -41
-25z"/>
<path d="M7644 3506 c-14 -11 -19 -26 -19 -66 0 -40 5 -55 19 -66 46 -33 96 1
96 66 0 65 -50 99 -96 66z"/>
<path d="M8840 3500 c-13 -13 -20 -33 -20 -60 0 -65 50 -99 96 -66 27 20 26
112 -1 132 -26 19 -52 17 -75 -6z"/>
</g>
</svg>
